<svg xmlns="http://www.w3.org/2000/svg" width="1200" height="675" viewBox="0 0 1200 675" role="img" aria-labelledby="t d">
  <title id="t">Firewalls &amp; Backups â€” Creating and Reviewing Firewall Rules</title>
  <desc id="d">Educational diagram showing the key ideas in Creating and Reviewing Firewall Rules.</desc>
  <rect width="1200" height="675" fill="#f7fafc"/>
  <circle cx="1080" cy="75" r="165" fill="#0f766e" opacity=".07"/>
  <circle cx="95" cy="610" r="135" fill="#0f766e" opacity=".055"/>
  <rect x="55" y="35" width="1090" height="595" rx="30" fill="#ffffff" stroke="#e0e8f0" stroke-width="2"/>
  <text x="90" y="62" font-size="16" font-weight="800" fill="#0f766e" letter-spacing="2">SECURITY &amp; OPERATIONS Â· LESSON 07</text>
  <text x="600" y="96" text-anchor="middle" font-size="32" font-weight="900" fill="#0b1f33">Creating and Reviewing Firewall</text><text x="600" y="128" text-anchor="middle" font-size="32" font-weight="900" fill="#0b1f33">Rules</text>
  <line x1="120" y1="148" x2="1080" y2="148" stroke="#e5ebf1" stroke-width="2"/>
  
        <circle cx="430" cy="275" r="55" fill="#eef8f7" stroke="#0f766e" stroke-width="5"/>
        <text x="430" y="283" text-anchor="middle" font-size="30" font-weight="800" fill="#0f766e">NET</text>
        <g fill="#0f766e">
          <rect x="540" y="175" width="120" height="42" rx="6"/><rect x="540" y="225" width="120" height="42" rx="6"/>
          <rect x="540" y="275" width="120" height="42" rx="6"/><rect x="540" y="325" width="120" height="42" rx="6"/>
        </g>
        <rect x="735" y="215" width="115" height="125" rx="16" fill="#fff" stroke="#0f766e" stroke-width="5"/>
        <path d="M792 225 l38 15v32c0 31-17 53-38 64-21-11-38-33-38-64v-32z" fill="#0f766e"/>
        <path d="M475 275 H535 M665 275 H730" stroke="#607083" stroke-width="6" stroke-linecap="round"/>
        
  
        <g>
          <rect x="95" y="480" width="210" height="86" rx="16" fill="#ffffff" stroke="#d9e2ec" stroke-width="2"/>
          <circle cx="123" cy="508" r="13" fill="#0f766e" opacity=".95"/>
          <path d="M117 508 l5 6 10-13" fill="none" stroke="#fff" stroke-width="3.5" stroke-linecap="round" stroke-linejoin="round"/>
          <text x="147" y="514" font-size="18" font-weight="800" fill="#16283d">Purpose</text>
          <text x="115" y="542" font-size="13" fill="#63758a">Key concept for this lesson</text>
        </g>
        <g>
          <rect x="340" y="480" width="210" height="86" rx="16" fill="#ffffff" stroke="#d9e2ec" stroke-width="2"/>
          <circle cx="368" cy="508" r="13" fill="#0f766e" opacity=".95"/>
          <path d="M362 508 l5 6 10-13" fill="none" stroke="#fff" stroke-width="3.5" stroke-linecap="round" stroke-linejoin="round"/>
          <text x="392" y="514" font-size="18" font-weight="800" fill="#16283d">Least Access</text>
          <text x="360" y="542" font-size="13" fill="#63758a">Key concept for this lesson</text>
        </g>
        <g>
          <rect x="585" y="480" width="210" height="86" rx="16" fill="#ffffff" stroke="#d9e2ec" stroke-width="2"/>
          <circle cx="613" cy="508" r="13" fill="#0f766e" opacity=".95"/>
          <path d="M607 508 l5 6 10-13" fill="none" stroke="#fff" stroke-width="3.5" stroke-linecap="round" stroke-linejoin="round"/>
          <text x="637" y="514" font-size="18" font-weight="800" fill="#16283d">Change Control</text>
          <text x="605" y="542" font-size="13" fill="#63758a">Key concept for this lesson</text>
        </g>
        <g>
          <rect x="830" y="480" width="210" height="86" rx="16" fill="#ffffff" stroke="#d9e2ec" stroke-width="2"/>
          <circle cx="858" cy="508" r="13" fill="#0f766e" opacity=".95"/>
          <path d="M852 508 l5 6 10-13" fill="none" stroke="#fff" stroke-width="3.5" stroke-linecap="round" stroke-linejoin="round"/>
          <text x="882" y="514" font-size="18" font-weight="800" fill="#16283d">Cleanup</text>
          <text x="850" y="542" font-size="13" fill="#63758a">Key concept for this lesson</text>
        </g>
  <rect x="155" y="590" width="890" height="2" fill="#e8edf2"/>
  <text x="600" y="618" text-anchor="middle" font-size="15" fill="#5d6f82">Visual guide: use this diagram together with the lecture explanation and practical activity.</text>
</svg>